<?xml version="1.0" standalone="no"?>
<!DOCTYPE svg PUBLIC "-//W3C//DTD SVG 20010904//EN"
 "http://www.w3.org/TR/2001/REC-SVG-20010904/DTD/svg10.dtd">
<svg version="1.0" xmlns="http://www.w3.org/2000/svg"
 width="600.000000pt" height="600.000000pt" viewBox="0 0 600.000000 600.000000"
 preserveAspectRatio="xMidYMid meet">
<metadata>
Created by potrace 1.14, written by Peter Selinger 2001-2017
</metadata>
<g transform="translate(0.000000,600.000000) scale(0.100000,-0.100000)"
fill="#000000" stroke="none">
<path d="M4549 5283 c-13 -16 -12 -17 4 -4 16 13 21 21 13 21 -2 0 -10 -8 -17
-17z"/>
<path d="M4225 5200 c-3 -6 1 -7 9 -4 18 7 21 14 7 14 -6 0 -13 -4 -16 -10z"/>
<path d="M4365 5181 c-3 -5 -14 -8 -25 -6 -19 4 -50 -18 -50 -35 0 -4 8 -7 18
-5 9 2 19 4 22 4 3 1 -1 5 -9 10 -9 6 -10 11 -2 15 6 4 11 3 11 -2 0 -11 69
-10 88 1 11 7 14 2 11 -19 0 -4 5 -11 13 -15 11 -7 10 -11 -2 -19 -9 -6 -10
-10 -3 -10 19 0 25 18 13 41 -10 18 -10 19 8 10 10 -6 31 -8 45 -6 14 3 28 1
31 -4 3 -5 -2 -8 -11 -7 -9 0 -18 -6 -21 -14 -5 -13 -3 -13 11 -1 14 11 17 11
17 0 0 -11 2 -11 10 1 5 8 10 18 10 21 0 11 -32 21 -75 26 -71 7 -80 8 -92 16
-6 4 -14 3 -18 -2z m19 -9 c3 -5 -1 -9 -9 -9 -8 0 -12 4 -9 9 3 4 7 8 9 8 2 0
6 -4 9 -8z"/>
<path d="M4204 5162 c3 -6 0 -14 -7 -19 -20 -12 -30 -43 -12 -36 8 3 13 9 10
13 -3 5 0 12 6 16 8 4 9 3 5 -4 -5 -8 -1 -10 10 -5 11 4 13 8 6 11 -7 2 -10 8
-7 12 3 5 0 12 -6 16 -7 4 -9 3 -5 -4z"/>
<path d="M4238 5159 c-6 -4 -8 -11 -5 -16 4 -6 -7 -20 -23 -31 -24 -18 -33
-20 -53 -11 -19 9 -30 8 -49 -5 -14 -9 -28 -13 -31 -9 -4 3 -7 1 -7 -6 0 -7 6
-11 14 -8 9 4 12 -2 10 -19 -1 -13 2 -24 6 -24 14 0 21 18 10 25 -16 10 7 44
27 40 10 -2 23 -4 28 -4 6 -1 3 -6 -5 -11 -11 -7 -11 -10 -2 -10 7 0 10 -5 6
-11 -4 -7 -1 -10 7 -7 8 3 14 11 14 19 1 8 7 13 14 11 7 -1 10 2 6 8 -3 6 0 7
10 4 10 -4 15 -2 13 7 -2 9 5 13 18 12 13 -1 24 5 28 15 3 9 9 22 12 29 6 13
-28 14 -48 2z m31 -16 c-6 -7 -15 -10 -20 -7 -13 8 -3 21 15 21 12 0 13 -4 5
-14z"/>
<path d="M4350 5138 c0 -5 -5 -7 -11 -5 -6 1 -14 -5 -16 -13 -4 -13 -3 -13 6
0 10 13 11 13 11 0 0 -12 2 -13 9 -1 7 10 10 10 13 1 3 -9 8 -8 20 3 14 15 17
15 28 1 11 -12 10 -13 -6 -7 -17 6 -17 5 -5 -10 19 -24 27 -21 27 11 0 27 -2
29 -38 28 -21 -1 -38 -4 -38 -8z"/>
<path d="M4467 5124 c2 -7 -1 -15 -8 -19 -8 -6 -4 -12 12 -22 17 -10 18 -12 4
-7 -11 4 -34 7 -52 7 -17 0 -31 5 -30 10 1 5 -4 12 -12 15 -8 2 -11 0 -8 -5 3
-5 0 -10 -8 -10 -8 0 -12 3 -10 7 2 4 -3 7 -11 7 -8 0 -13 -6 -10 -12 2 -6 -2
-12 -10 -12 -7 0 -11 4 -8 9 3 4 0 16 -6 25 -11 17 -11 17 -6 0 4 -12 2 -16
-6 -11 -8 5 -9 2 -5 -10 4 -9 3 -15 -2 -11 -5 3 -11 2 -14 -2 -4 -8 -1 6 9 35
3 9 -1 6 -9 -7 -9 -15 -17 -20 -21 -12 -4 6 -13 11 -19 11 -8 0 -7 -3 2 -9 11
-7 8 -11 -10 -17 -13 -4 -27 -7 -30 -7 -3 1 -6 -4 -6 -12 0 -11 5 -10 24 2 13
8 23 11 23 7 0 -5 5 -2 11 6 7 10 9 11 7 2 -2 -8 -6 -12 -9 -10 -3 2 -17 -5
-32 -15 -15 -9 -27 -14 -27 -11 0 4 -9 -1 -21 -12 -12 -10 -24 -19 -28 -19 -3
0 -5 -4 -3 -8 1 -5 -2 -5 -9 -2 -6 4 -17 -2 -25 -14 -8 -12 -22 -21 -30 -21
-8 0 -13 -4 -10 -9 3 -5 -1 -12 -10 -15 -8 -3 -12 -11 -8 -17 4 -8 3 -9 -4 -5
-7 4 -12 1 -12 -7 0 -8 -9 -22 -20 -32 -11 -10 -18 -21 -16 -24 3 -4 -4 -18
-14 -31 l-19 -25 5 25 c5 22 4 23 -6 7 -9 -14 -15 -15 -25 -7 -7 6 -17 10 -21
9 -9 -2 -58 9 -84 18 -8 4 -21 5 -27 4 -7 -1 -13 2 -13 6 0 5 -8 9 -17 10 -10
0 -43 6 -73 13 -57 12 -150 24 -185 23 -67 -1 -76 -4 -92 -30 l-15 -28 -152 0
c-202 0 -260 -7 -448 -52 -62 -14 -70 -14 -109 1 -23 10 -65 22 -93 27 -28 6
-64 13 -81 16 -41 8 -89 8 -160 0 -33 -3 -89 -9 -125 -12 -36 -3 -87 -8 -114
-10 -27 -3 -59 -11 -72 -20 -13 -9 -24 -12 -24 -8 0 3 -10 -3 -22 -14 -13 -12
-47 -31 -75 -43 -29 -12 -68 -39 -86 -59 -18 -20 -51 -49 -72 -66 -58 -43 -82
-74 -100 -126 -28 -82 -20 -265 16 -338 26 -55 30 -87 13 -127 -13 -31 -15
-40 -29 -124 -4 -25 -14 -57 -21 -72 -14 -26 -73 -181 -78 -203 -2 -5 -8 -28
-14 -50 -6 -22 -13 -51 -16 -65 -2 -14 -9 -46 -15 -72 -25 -108 -35 -398 -19
-538 9 -74 42 -231 66 -306 18 -59 18 -61 1 -57 -10 3 -33 20 -52 38 -41 40
-68 55 -100 55 -45 0 -127 44 -227 121 -19 14 -73 44 -120 65 -47 21 -87 41
-90 45 -3 3 -24 14 -47 24 -24 11 -39 23 -36 31 2 6 -1 15 -8 20 -7 4 -10 3
-5 -4 3 -6 1 -14 -6 -18 -7 -4 -10 -4 -6 1 4 4 0 14 -10 22 -16 12 -15 13 3 6
19 -6 19 -5 -3 19 -12 13 -19 27 -16 31 4 4 -1 9 -10 13 -15 6 -14 8 4 24 17
15 18 19 6 23 -9 4 -18 1 -22 -5 -5 -7 -2 -8 6 -3 9 6 11 4 5 -4 -5 -9 -13 -7
-29 8 -12 12 -26 18 -30 14 -4 -4 -4 0 -1 9 4 10 16 20 27 24 11 3 17 8 15 11
-3 2 -19 -3 -36 -11 -34 -18 -51 -6 -29 21 14 17 16 18 -48 -14 -17 -9 -23 -7
-33 9 -7 11 -8 17 -2 14 7 -5 8 -1 4 10 -4 11 -8 13 -11 6 -2 -7 -13 -12 -25
-12 -22 1 -22 1 -2 16 12 10 14 15 5 12 -8 -3 -21 -15 -27 -29 -12 -22 -13
-22 -13 -3 0 11 5 25 12 32 8 8 8 12 1 12 -6 0 -14 -8 -18 -17 -7 -17 -8 -16
-15 2 -5 11 -9 14 -9 8 -1 -7 -8 -13 -16 -13 -8 0 -15 -5 -15 -11 0 -8 -6 -7
-17 2 -17 13 -17 12 -3 -5 13 -16 12 -20 -5 -32 -10 -8 -14 -14 -8 -14 11 0
11 -46 -1 -57 -10 -10 -12 86 -3 124 4 16 -1 28 -20 43 -14 11 -30 17 -36 13
-6 -4 -8 0 -4 10 3 9 1 19 -5 23 -7 4 -8 3 -4 -4 10 -17 3 -15 -48 12 -26 14
-46 21 -46 18 0 -4 -4 -2 -8 3 -11 16 -92 54 -92 44 0 -5 -5 -9 -10 -9 -6 0
-10 7 -8 16 2 10 -5 18 -16 20 -14 2 -16 0 -7 -9 6 -6 11 -16 11 -21 -1 -6
-10 0 -22 14 -14 16 -19 19 -15 8 4 -11 2 -18 -6 -18 -7 0 -4 -5 5 -11 10 -5
21 -9 24 -9 4 1 11 -4 15 -12 6 -8 9 -9 9 -1 0 7 11 10 27 7 16 -3 33 -5 40
-6 7 -1 12 -4 11 -7 0 -3 0 -13 1 -21 1 -13 2 -13 12 0 9 13 10 13 7 0 -4 -14
-65 -22 -74 -9 -5 9 25 21 37 13 5 -3 9 -3 9 0 0 3 -10 10 -21 17 -17 9 -20 8
-14 -2 6 -9 3 -11 -9 -6 -9 4 -15 3 -11 -2 3 -6 -1 -14 -10 -18 -14 -8 -14
-11 0 -28 14 -19 15 -19 9 -1 -6 16 -5 17 15 7 12 -7 26 -9 31 -6 6 3 10 2 10
-3 0 -6 10 -8 22 -4 15 4 19 2 13 -7 -6 -10 -3 -11 13 -2 30 16 40 13 18 -4
-14 -11 -16 -15 -5 -15 10 0 11 -2 2 -8 -8 -5 -9 -13 -3 -22 8 -12 10 -11 11
5 1 11 1 23 0 28 0 4 4 7 9 7 6 0 8 -11 6 -25 -3 -18 0 -25 11 -25 12 0 13 3
4 13 -8 10 -7 17 2 26 9 9 9 14 -3 22 -11 8 -9 9 10 3 28 -8 42 -23 33 -38 -4
-5 1 -7 10 -3 9 3 19 1 23 -5 4 -6 3 -8 -3 -5 -6 4 -14 0 -17 -9 -4 -11 -2
-15 8 -11 9 4 13 0 11 -11 -1 -9 2 -26 7 -37 9 -19 9 -19 -6 -1 -9 10 -14 22
-12 25 2 3 -7 14 -19 24 -13 9 -26 13 -30 8 -3 -5 -1 -12 5 -16 6 -4 8 -11 4
-16 -3 -5 -10 -7 -15 -4 -5 3 -6 -1 -2 -10 5 -15 3 -15 -15 -4 -11 7 -20 18
-19 23 1 6 -8 10 -21 10 -20 -1 -26 7 -23 28 0 4 -6 5 -15 1 -9 -3 -12 -9 -6
-12 5 -3 14 -15 20 -26 6 -11 12 -14 12 -7 0 7 5 10 10 7 6 -4 8 -11 4 -16 -3
-5 -2 -8 3 -7 4 1 19 -4 33 -12 14 -7 26 -13 28 -12 1 1 5 2 10 2 4 0 0 -5 -8
-10 -11 -7 -11 -10 -2 -10 7 0 10 -5 7 -10 -4 -7 -13 -7 -26 0 -11 6 -17 15
-14 20 4 6 -2 7 -11 3 -10 -4 -13 -8 -7 -10 7 -3 9 -11 6 -20 -5 -12 -1 -14
15 -9 12 4 23 2 28 -5 4 -8 3 -9 -5 -5 -18 12 -24 -22 -7 -40 10 -10 14 -24
11 -38 -4 -12 -3 -16 2 -10 6 9 11 8 21 -2 7 -8 10 -14 6 -14 -3 0 -2 -6 5
-13 8 -10 7 -17 -2 -26 -9 -10 -8 -11 6 -6 12 5 17 2 17 -11 0 -9 3 -15 6 -11
7 7 23 -9 42 -41 10 -18 10 -22 0 -22 -7 0 -5 -5 5 -11 9 -6 14 -16 11 -22 -4
-7 -4 -9 1 -5 4 4 14 0 22 -10 12 -16 13 -16 7 2 -6 16 -4 17 13 8 11 -6 23
-8 27 -5 3 3 6 1 6 -6 0 -7 4 -10 9 -6 5 3 16 -4 24 -15 12 -18 15 -18 20 -5
4 8 12 15 18 15 9 0 9 -3 0 -14 -9 -10 -8 -15 3 -19 9 -4 13 -1 10 6 -2 8 4
13 17 14 16 2 18 -1 9 -12 -8 -9 -8 -15 0 -20 6 -4 9 -1 8 7 -2 7 4 13 12 13
9 0 14 -7 12 -17 -2 -10 1 -18 7 -18 5 0 8 6 7 13 -7 31 -19 44 -39 43 -12 -1
-28 2 -35 7 -8 7 -17 6 -24 -1 -8 -8 -18 -6 -36 8 -13 11 -28 17 -32 15 -5 -3
-12 0 -16 6 -4 7 -3 9 4 5 6 -3 15 2 21 11 8 14 11 15 11 3 0 -9 6 -6 16 10 8
14 13 18 10 8 -6 -20 28 -52 48 -45 11 4 13 1 9 -10 -5 -13 -3 -13 14 -5 11 6
24 8 28 4 5 -4 5 1 2 11 -9 24 0 21 14 -4 9 -17 8 -20 -3 -14 -7 4 -5 0 4 -11
14 -15 20 -16 30 -5 11 10 10 11 -4 6 -14 -5 -16 -2 -13 15 2 13 7 25 11 29 4
3 4 -2 0 -13 -5 -15 -2 -18 19 -14 25 5 36 -7 13 -14 -9 -3 -9 -6 0 -12 7 -4
12 -2 12 3 0 17 22 13 66 -10 68 -35 80 -43 105 -71 14 -15 48 -37 75 -48 101
-44 112 -51 117 -77 4 -21 -2 -32 -26 -52 -67 -57 -67 -58 -65 -115 2 -45 -2
-58 -25 -85 -15 -18 -28 -40 -28 -49 -1 -9 -2 -35 -4 -57 -1 -22 -9 -66 -19
-97 -14 -50 -15 -62 -2 -91 14 -35 112 -116 169 -141 70 -29 84 -32 147 -30
163 7 142 16 220 -86 50 -65 141 -171 170 -197 41 -37 45 -40 91 -65 37 -19
59 -23 139 -23 88 0 98 2 140 29 42 27 130 113 130 127 0 4 12 20 28 37 l27
31 61 -37 c57 -34 192 -101 274 -135 78 -33 253 -81 335 -92 28 -4 59 -10 70
-12 52 -13 376 -11 470 3 728 105 1305 642 1465 1361 11 51 23 121 27 155 10
84 10 346 0 431 -19 173 -86 396 -168 560 -27 54 -49 105 -49 113 0 8 -4 12
-10 9 -5 -3 -10 1 -10 9 0 8 -6 21 -12 28 -34 35 -39 46 -27 54 8 5 10 3 4 -7
-5 -8 4 -3 18 10 32 29 31 28 12 28 -8 0 -12 -4 -9 -9 3 -4 -1 -5 -9 -2 -8 3
-18 0 -22 -5 -3 -6 -11 -9 -16 -5 -6 4 -6 11 2 20 10 12 9 13 -4 8 -11 -4 -15
0 -14 14 1 16 4 18 19 8 10 -6 18 -14 18 -18 0 -5 5 -8 11 -8 5 0 7 5 3 12 -5
7 -3 8 7 3 7 -5 20 -10 29 -12 41 -6 120 -29 116 -33 -2 -3 5 -5 17 -6 12 0
58 -9 102 -18 44 -10 118 -20 165 -23 74 -5 88 -3 109 14 23 19 24 22 12 52
-8 17 -37 53 -65 79 -59 53 -198 152 -215 152 -6 0 -11 3 -11 8 0 4 -15 14
-32 22 -18 7 -42 22 -52 32 -11 10 -25 18 -32 18 -6 0 -17 7 -24 15 -7 8 -17
12 -23 8 -6 -4 -7 -1 -2 8 5 7 9 29 10 49 1 23 6 34 15 32 7 -2 22 5 33 15 14
12 18 13 12 3 -12 -20 -16 -70 -5 -70 9 0 8 -19 -3 -37 -4 -6 -3 -14 3 -18 10
-6 11 -5 15 33 1 12 11 32 21 45 19 22 19 22 -2 5 -29 -25 -41 -22 -18 4 10
12 14 18 7 14 -9 -5 -11 4 -7 34 3 25 1 40 -6 40 -6 0 -9 -4 -6 -9 7 -11 -18
-33 -27 -24 -4 3 -13 0 -21 -6 -12 -10 -14 -9 -12 6 2 10 10 17 18 16 8 -2 14
6 15 19 2 16 -1 18 -10 9 -6 -6 -16 -11 -22 -11 -5 0 -3 5 5 10 11 7 11 10 2
10 -7 0 -12 8 -10 18 2 11 -3 26 -10 35 -9 10 -10 17 -2 22 5 3 10 11 10 16 0
6 -6 7 -12 3 -8 -5 -7 0 2 11 14 17 13 18 -2 12 -10 -3 -17 -3 -17 1 1 4 0 9
-1 12 -1 3 -3 12 -5 20 -8 38 -11 45 -30 62 -11 9 -16 17 -11 18 6 0 -3 13
-18 29 l-28 30 19 28 c10 15 18 35 18 43 -1 8 -3 21 -3 28 -1 6 -7 12 -13 12
-6 0 -17 6 -24 14 -11 10 -11 16 -2 27 10 11 9 11 -5 1 -10 -8 -19 -9 -22 -3
-3 5 -3 11 1 14 5 2 3 3 -3 1 -7 -1 -27 8 -45 20 -51 34 -67 38 -78 17 -12
-21 -57 -21 -55 0 1 8 -7 15 -16 15 -10 0 -16 -6 -13 -12z m124 -9 c4 0 28
-15 53 -33 43 -31 51 -43 47 -66 -1 -5 6 -5 15 -2 25 10 35 -14 18 -46 -14
-26 -46 -30 -41 -5 1 7 -6 11 -15 9 -21 -3 -23 8 -5 27 10 12 9 13 -7 7 -22
-7 -70 20 -61 34 4 6 1 10 -4 10 -6 0 -11 -6 -12 -12 0 -10 -2 -10 -6 0 -2 6
-11 12 -19 12 -8 0 -14 4 -14 10 0 5 -6 7 -14 4 -19 -7 -31 15 -16 29 9 9 14
8 23 -3 18 -22 56 -24 52 -2 -2 9 -4 19 -4 22 -1 3 -5 -2 -11 -10 -5 -8 -13
-11 -17 -6 -4 5 -2 11 5 13 6 3 9 10 6 15 -5 7 -2 8 7 2 8 -5 17 -9 20 -9z
m-101 -15 c0 -5 -2 -10 -4 -10 -3 0 -8 5 -11 10 -3 6 -1 10 4 10 6 0 11 -4 11
-10z m-820 -219 c25 -5 57 -12 73 -16 15 -3 27 -10 27 -15 0 -5 -6 -7 -12 -5
-36 12 -120 11 -145 -2 -19 -10 -40 -12 -68 -7 -58 11 -57 11 -87 12 -32 2
-37 25 -10 42 19 12 152 7 222 -9z m175 -45 c15 -3 30 -8 34 -11 3 -3 -6 -4
-19 -2 -54 11 -80 20 -80 28 0 6 8 6 18 0 11 -6 31 -12 47 -15z m-50 -16 c28
-6 57 -14 65 -17 8 -4 19 -5 24 -4 4 1 14 -3 20 -9 7 -5 16 -7 19 -3 4 3 7 1
7 -4 0 -6 -6 -13 -12 -16 -7 -2 -10 -8 -6 -12 5 -5 18 0 30 11 13 12 18 13 13
4 -5 -8 -10 -21 -11 -28 -3 -18 -14 -29 -14 -13 0 7 -4 9 -10 6 -5 -3 -10 -1
-10 5 0 6 -4 8 -10 5 -6 -4 -7 1 -3 12 6 16 5 16 -10 4 -9 -7 -17 -10 -17 -6
0 4 8 14 18 21 10 8 12 13 5 14 -7 0 -18 -8 -24 -18 -11 -17 -15 -18 -53 -5
-22 8 -48 16 -56 20 -8 3 -19 7 -25 7 -47 6 -123 31 -118 39 7 11 108 4 178
-13z m1075 -260 c0 -5 -4 -10 -10 -10 -5 0 -10 5 -10 10 0 6 5 10 10 10 6 0
10 -4 10 -10z m-19 -173 c18 -3 93 -48 97 -59 2 -4 10 -8 18 -8 8 0 17 -7 20
-15 4 -8 9 -13 14 -10 17 11 121 -97 107 -112 -12 -11 -73 -14 -115 -4 -26 6
-60 13 -77 16 -31 6 -57 12 -65 15 -3 1 -8 2 -12 1 -5 0 -8 4 -8 9 0 6 -3 9
-7 9 -21 -3 -33 2 -33 16 0 8 -5 14 -12 13 -7 -2 -12 6 -13 17 0 11 5 20 10
20 6 0 16 4 23 8 7 5 12 3 12 -4 0 -16 13 -3 16 16 3 18 -1 18 -27 5 -13 -7
-19 -7 -19 0 0 5 6 10 14 10 10 0 13 8 10 28 -3 22 -2 24 6 10 6 -10 16 -18
22 -18 7 0 7 4 -1 13 -6 8 -8 17 -4 20 3 4 1 7 -6 7 -7 0 -9 5 -5 11 5 8 9 8
14 -1 4 -6 13 -12 21 -13z m233 -106 c84 -55 182 -144 189 -171 3 -10 -2 -25
-10 -31 -20 -18 -112 -19 -186 -4 -35 7 -77 16 -93 18 -27 5 -44 10 -84 24
-15 6 -20 7 -77 18 -18 3 -33 9 -33 14 0 4 -7 8 -15 9 -8 1 -21 3 -29 4 -8 1
-12 8 -9 16 5 12 2 12 -15 3 -15 -8 -22 -8 -22 -1 0 5 7 10 16 10 8 0 12 5 9
10 -3 6 -1 10 5 10 6 0 8 5 4 13 -6 9 -4 9 8 -1 16 -13 31 -17 98 -28 19 -3
37 -9 40 -13 3 -3 16 -7 30 -8 14 -1 55 -5 91 -9 37 -4 79 -4 93 0 56 14 19
75 -93 153 -36 26 -70 51 -76 56 -16 15 83 -42 159 -92z m-4731 -1034 c3 -8
-1 -14 -8 -14 -7 0 -11 6 -8 14 3 7 6 13 8 13 2 0 5 -6 8 -13z m144 -99 c-3
-8 -6 -5 -6 6 -1 11 2 17 5 13 3 -3 4 -12 1 -19z m84 -30 c1 -7 1 -17 0 -21
-1 -5 9 -6 21 -2 22 6 22 5 3 -6 -11 -6 -32 -25 -47 -41 -16 -16 -28 -25 -28
-21 0 5 5 14 11 20 8 8 8 17 1 29 -7 12 -6 23 1 36 13 21 36 24 38 6z m70 -18
c6 0 7 5 3 12 -5 7 -3 8 6 3 10 -6 9 -11 -6 -22 -16 -12 -17 -15 -4 -24 13 -9
13 -10 0 -6 -8 2 -15 17 -16 33 -1 16 0 23 3 17 2 -7 9 -13 14 -13z m-216 0
c-3 -5 -1 -10 4 -10 6 0 11 -7 11 -15 0 -8 -5 -15 -11 -15 -5 0 -8 4 -4 9 3 5
1 12 -5 16 -10 6 -5 25 6 25 3 0 2 -4 -1 -10z m302 -32 c-3 -7 -5 -2 -5 12 0
14 2 19 5 13 2 -7 2 -19 0 -25z m-52 12 c3 -5 1 -10 -4 -10 -6 0 -11 5 -11 10
0 6 2 10 4 10 3 0 8 -4 11 -10z m-86 -36 c-6 -8 -15 -12 -18 -8 -3 4 0 9 7 11
6 3 9 10 6 15 -4 7 -2 8 5 4 9 -6 9 -11 0 -22z m108 1 c0 -8 -4 -12 -9 -9 -5
3 -6 10 -3 15 9 13 12 11 12 -6z m-257 -5 c0 -5 -7 -10 -16 -10 -8 0 -12 5 -9
10 3 6 10 10 16 10 5 0 9 -4 9 -10z m34 -19 c3 -5 -2 -8 -11 -7 -9 0 -18 -6
-20 -14 -4 -12 -3 -12 5 -2 7 11 10 10 16 -3 4 -11 11 -14 19 -9 7 5 5 2 -5
-7 -20 -19 -12 -35 9 -18 7 6 13 7 13 3 0 -5 -9 -15 -21 -22 -12 -8 -18 -9
-14 -3 3 6 1 11 -5 11 -7 0 -9 8 -5 21 6 17 4 20 -6 13 -23 -14 -44 -15 -30
-1 16 16 14 32 -3 18 -11 -9 -15 -8 -20 4 -3 9 -2 13 4 10 5 -3 18 -1 27 4 22
13 40 14 47 2z m96 -1 c12 -7 10 -9 -8 -7 -12 0 -22 5 -22 9 0 11 12 10 30 -2z
m224 -2 c-3 -4 -11 -5 -19 -1 -21 7 -19 12 4 10 11 0 18 -5 15 -9z m-260 -84
c3 -8 2 -12 -4 -9 -6 3 -10 10 -10 16 0 14 7 11 14 -7z m6 -154 c0 -5 -2 -10
-4 -10 -3 0 -8 5 -11 10 -3 6 -1 10 4 10 6 0 11 -4 11 -10z m135 0 c3 -5 1
-10 -4 -10 -6 0 -11 5 -11 10 0 6 2 10 4 10 3 0 8 -4 11 -10z"/>
<path d="M4596 5082 c1 -15 3 -29 4 -32 1 -3 2 -8 1 -12 -2 -15 40 -30 53 -18
18 14 29 -12 13 -30 -9 -10 -9 -11 0 -6 6 3 18 -3 26 -15 14 -19 15 -20 21 -2
8 25 7 33 -1 31 -5 -1 -6 -9 -5 -18 3 -11 1 -12 -8 -4 -6 6 -12 21 -13 33 -1
11 -5 21 -9 21 -4 0 -7 6 -5 13 1 6 -4 11 -10 10 -7 -2 -13 1 -13 6 0 5 -13
19 -28 30 l-29 20 3 -27z m39 -23 c-6 -9 9 -13 30 -10 6 1 3 -5 -6 -14 -13
-13 -21 -15 -35 -6 -11 6 -14 11 -8 11 6 0 11 7 11 15 0 9 -6 14 -12 11 -6 -2
-12 2 -12 9 0 10 5 11 19 4 10 -6 16 -14 13 -20z"/>
<path d="M4510 5080 c0 -5 5 -10 10 -10 6 0 10 5 10 10 0 6 -4 10 -10 10 -5 0
-10 -4 -10 -10z"/>
<path d="M4550 5066 c0 -2 7 -7 16 -10 8 -3 12 -2 9 4 -6 10 -25 14 -25 6z"/>
<path d="M4840 4365 c7 -8 7 -15 1 -19 -5 -4 -8 -15 -6 -26 2 -11 -1 -22 -6
-25 -5 -4 -7 -10 -4 -15 3 -4 -2 -10 -10 -13 -9 -4 -12 -1 -9 8 4 9 -1 13 -13
12 -11 0 -20 -7 -20 -14 0 -6 4 -10 8 -7 4 2 15 -6 25 -18 9 -13 14 -16 11 -6
-4 12 0 15 19 13 24 -2 24 -2 7 18 -18 19 -17 20 5 8 22 -12 23 -11 14 5 -7
13 -5 22 9 37 22 24 11 52 -21 54 -17 2 -19 -1 -10 -12z m33 -9 c3 -8 -3 -22
-13 -31 -19 -17 -21 -8 -5 28 9 21 11 21 18 3z"/>
<path d="M4740 4203 c0 -19 29 -43 46 -36 20 8 12 28 -12 28 -10 -1 -22 4 -26
10 -5 6 -8 6 -8 -2z m50 -19 c0 -8 -19 -13 -24 -6 -3 5 1 9 9 9 8 0 15 -2 15
-3z"/>
<path d="M4835 4160 c3 -5 8 -10 11 -10 2 0 4 5 4 10 0 6 -5 10 -11 10 -5 0
-7 -4 -4 -10z"/>
<path d="M552 3107 c-13 -15 1 -43 16 -33 10 6 11 31 0 41 -3 3 -10 0 -16 -8z
m15 -12 c0 -8 -4 -12 -9 -9 -5 3 -6 10 -3 15 9 13 12 11 12 -6z"/>
<path d="M4150 5120 c0 -5 5 -10 10 -10 6 0 10 5 10 10 0 6 -4 10 -10 10 -5 0
-10 -4 -10 -10z"/>
<path d="M3895 5091 c-3 -5 -2 -12 3 -15 5 -3 9 1 9 9 0 17 -3 19 -12 6z"/>
<path d="M4116 5075 c-2 -7 0 -17 5 -22 6 -6 2 -16 -11 -28 -12 -11 -21 -13
-21 -7 -1 7 -2 18 -3 25 -2 18 -39 9 -55 -14 -7 -10 -20 -19 -28 -19 -8 0 -11
-5 -8 -10 5 -8 11 -7 21 1 10 8 14 8 14 0 0 -6 -6 -12 -12 -12 -7 -1 -20 -2
-28 -3 -8 0 -15 -8 -15 -16 -1 -8 -7 -14 -14 -12 -7 1 -10 -2 -6 -8 3 -6 11
-7 17 -4 7 5 8 2 4 -5 -5 -7 -15 -10 -23 -7 -8 3 -11 1 -8 -4 4 -6 -4 -19 -17
-30 -13 -11 -19 -19 -15 -20 4 0 3 -10 -4 -21 -8 -16 -8 -20 0 -14 7 4 18 2
25 -4 10 -9 15 -8 19 4 4 9 13 12 24 8 10 -3 15 -2 10 2 -4 5 -1 15 7 24 8 9
16 22 18 30 2 7 13 24 26 37 13 14 20 29 16 36 -5 8 -2 9 10 5 22 -8 81 46 71
65 -4 7 1 4 11 -7 l17 -20 -8 20 c-4 11 -8 25 -8 31 -1 15 -25 14 -31 -1z
m-39 -37 c0 -7 4 -21 8 -32 6 -14 5 -17 -6 -14 -8 3 -13 13 -11 23 2 9 -1 14
-7 11 -5 -4 -13 -1 -17 5 -4 7 -3 9 4 5 6 -3 13 -2 17 4 8 13 12 13 12 -2z
m-29 -43 c-3 -3 -9 2 -12 12 -6 14 -5 15 5 6 7 -7 10 -15 7 -18z m-9 -26 c-8
-5 -10 -9 -6 -9 5 0 5 -5 1 -11 -4 -8 -9 -8 -17 0 -17 17 -31 13 -17 -4 10
-12 10 -15 -1 -15 -11 0 -11 -2 1 -10 11 -7 11 -10 2 -10 -7 0 -11 -4 -8 -9 3
-5 0 -14 -8 -20 -11 -9 -15 -8 -20 6 -9 23 -8 29 8 25 8 -1 13 7 13 20 1 41 3
43 34 44 22 1 27 -1 18 -7z m-88 -112 c-5 -5 -14 -6 -19 -3 -9 5 -9 15 -2 46
0 3 7 -4 15 -14 9 -12 11 -24 6 -29z"/>
<path d="M3967 4899 c7 -7 15 -10 18 -7 3 3 -2 9 -12 12 -14 6 -15 5 -6 -5z"/>
<path d="M4834 5076 c1 -8 5 -18 8 -22 4 -3 5 1 4 10 -1 8 -5 18 -8 22 -4 3
-5 -1 -4 -10z"/>
<path d="M4755 4981 c3 -5 1 -12 -4 -16 -6 -3 -7 -13 -4 -22 4 -10 2 -14 -5
-9 -24 14 -23 -17 2 -43 14 -15 24 -30 20 -33 -3 -4 4 -11 15 -18 12 -6 19
-15 16 -21 -4 -5 -2 -9 4 -9 5 0 8 -9 6 -20 -3 -15 3 -24 20 -32 14 -6 25 -15
25 -20 0 -5 -4 -6 -10 -3 -5 3 -7 0 -4 -8 3 -8 0 -18 -6 -22 -8 -5 -7 -12 5
-25 9 -10 15 -23 13 -31 -2 -7 4 -13 12 -14 10 0 15 -10 14 -27 -1 -15 3 -25
8 -22 4 3 6 10 3 15 -4 5 1 12 9 15 12 4 14 15 10 42 -6 41 -18 59 -28 43 -4
-6 -3 -11 3 -11 5 0 8 -8 6 -17 -1 -10 2 -24 8 -30 6 -9 6 -13 -1 -13 -9 0
-23 22 -27 45 -1 6 -3 12 -4 15 -2 3 -4 13 -6 23 -3 15 -1 16 11 6 11 -9 14
-9 14 0 0 7 4 9 10 6 6 -3 7 1 4 9 -3 9 -10 16 -16 16 -5 0 -6 -5 -2 -12 4 -7
3 -8 -4 -4 -15 9 -3 38 12 29 7 -4 7 -1 -1 7 -10 11 -9 16 5 27 9 8 11 12 4 8
-6 -3 -19 1 -28 9 -8 9 -13 16 -9 16 10 0 -29 60 -40 61 -5 0 -18 2 -27 4 -10
2 -18 -1 -18 -6 0 -6 -4 -8 -9 -4 -12 7 -10 45 2 45 5 0 6 -7 3 -16 -5 -14 -4
-15 9 -4 8 7 12 17 8 23 -3 6 -1 7 6 3 6 -4 8 -12 5 -18 -5 -7 -2 -8 6 -3 8 5
11 4 7 -2 -3 -5 0 -10 8 -10 20 0 19 3 -7 27 -12 11 -28 18 -35 16 -7 -3 -15
0 -19 6 -4 6 -3 8 3 5 6 -4 17 1 24 10 10 12 10 14 2 9 -7 -4 -13 -2 -13 3 0
6 -5 11 -11 11 -5 0 -8 -4 -4 -9z m81 -125 c7 -11 11 -22 9 -26 -3 -4 2 -13 9
-20 8 -6 13 -21 11 -32 -6 -27 -8 -29 -25 -18 -12 8 -12 10 4 10 11 0 16 3 12
8 -7 7 -12 8 -38 11 -7 0 -3 8 8 17 10 8 14 13 7 10 -11 -6 -56 32 -60 51 -3
17 49 8 63 -11z m24 -178 c0 -6 -6 -5 -15 2 -8 7 -15 14 -15 16 0 2 7 1 15 -2
8 -4 15 -11 15 -16z"/>
<path d="M4790 4861 c0 -4 9 -16 19 -25 20 -19 35 -9 21 14 -9 15 -40 23 -40
11z"/>
<path d="M4836 4802 c-3 -5 1 -9 9 -9 8 0 12 4 9 9 -3 4 -7 8 -9 8 -2 0 -6 -4
-9 -8z"/>
<path d="M4910 4701 c0 -6 4 -13 10 -16 6 -3 7 1 4 9 -7 18 -14 21 -14 7z"/>
<path d="M4845 4497 c2 -48 17 -64 36 -41 12 16 12 17 -3 11 -10 -3 -20 -2
-23 4 -4 5 -1 8 6 7 7 -2 12 9 13 27 2 23 -2 31 -14 31 -13 0 -16 -9 -15 -39z"/>
<path d="M1470 4159 c0 -5 5 -7 10 -4 6 3 10 8 10 11 0 2 -4 4 -10 4 -5 0 -10
-5 -10 -11z"/>
<path d="M4740 4086 c0 -2 8 -10 18 -17 15 -13 16 -12 3 4 -13 16 -21 21 -21
13z"/>
<path d="M985 3980 c3 -5 8 -10 11 -10 2 0 4 5 4 10 0 6 -5 10 -11 10 -5 0 -7
-4 -4 -10z"/>
<path d="M26 3343 c-6 -14 -5 -15 5 -6 7 7 10 15 7 18 -3 3 -9 -2 -12 -12z"/>
<path d="M70 3314 c0 -25 26 -39 36 -21 4 7 3 8 -1 4 -5 -4 -15 3 -22 15 -12
23 -12 23 -13 2z"/>
<path d="M97 3318 c2 -5 10 -8 18 -8 8 0 16 3 18 8 3 4 -5 7 -18 7 -13 0 -21
-3 -18 -7z"/>
<path d="M127 3292 c-18 -20 -23 -37 -8 -28 4 3 25 -4 47 -14 38 -20 64 -26
51 -13 -4 3 -1 13 6 21 10 13 8 14 -12 7 -15 -5 -21 -4 -17 3 3 6 2 13 -3 17
-6 3 -8 -4 -6 -16 3 -13 1 -19 -4 -13 -5 5 -11 18 -13 28 -4 27 -21 30 -41 8z
m33 -9 c0 -15 -2 -16 -10 -3 -8 12 -10 12 -10 1 0 -8 -3 -12 -6 -8 -8 7 4 27
17 27 5 0 9 -8 9 -17z"/>
<path d="M473 3233 c0 -9 4 -10 14 -2 7 6 13 12 13 14 0 1 -6 2 -13 2 -8 0
-14 -6 -14 -14z"/>
<path d="M496 3221 c-3 -5 2 -16 12 -24 16 -15 18 -15 19 3 2 19 -22 35 -31
21z"/>
<path d="M570 3219 c0 -5 5 -7 10 -4 6 3 10 8 10 11 0 2 -4 4 -10 4 -5 0 -10
-5 -10 -11z"/>
<path d="M221 3203 c8 -13 18 -23 23 -23 5 0 19 -8 30 -17 21 -18 21 -18 5 2
-9 11 -14 27 -12 35 4 13 3 13 -6 0 -8 -12 -13 -11 -32 5 l-22 20 14 -22z"/>
<path d="M411 3186 c-8 -10 -9 -16 -1 -21 5 -3 10 -3 10 1 0 3 8 0 18 -7 15
-12 16 -12 5 2 -7 9 -10 18 -7 21 3 3 1 9 -4 12 -5 3 -15 -1 -21 -8z"/>
<path d="M565 3179 c-4 -6 -5 -12 -2 -15 2 -3 7 2 10 11 7 17 1 20 -8 4z"/>
<path d="M730 3179 c0 -5 5 -7 10 -4 6 3 10 8 10 11 0 2 -4 4 -10 4 -5 0 -10
-5 -10 -11z"/>
<path d="M525 3160 c3 -5 10 -10 16 -10 5 0 9 5 9 10 0 6 -7 10 -16 10 -8 0
-12 -4 -9 -10z"/>
<path d="M691 3153 c-1 -6 4 -15 10 -19 8 -4 7 -9 -2 -16 -11 -8 -11 -9 -1 -6
8 2 14 8 14 13 0 6 5 17 11 25 10 13 10 13 -5 2 -13 -10 -17 -10 -21 0 -4 9
-6 9 -6 1z"/>
<path d="M390 3136 c0 -2 7 -7 16 -10 8 -3 12 -2 9 4 -6 10 -25 14 -25 6z"/>
<path d="M800 3076 c0 -2 7 -9 15 -16 9 -7 15 -8 15 -2 0 5 -7 12 -15 16 -8 3
-15 4 -15 2z"/>
<path d="M864 3025 c-10 -8 -14 -14 -9 -15 15 0 40 18 34 24 -3 3 -14 -1 -25
-9z"/>
<path d="M893 2995 c4 -8 1 -17 -5 -21 -6 -4 -8 -3 -4 4 3 6 2 13 -3 16 -18
11 -21 -11 -3 -26 28 -24 39 -28 39 -13 0 8 -5 12 -11 9 -6 -3 -2 2 8 10 18
15 18 16 2 16 -9 0 -14 5 -11 10 3 6 1 10 -5 10 -7 0 -10 -7 -7 -15z"/>
<path d="M474 2808 l-19 -23 23 19 c21 18 27 26 19 26 -2 0 -12 -10 -23 -22z"/>
<path d="M630 2761 c0 -5 7 -12 16 -15 24 -9 28 -7 14 9 -14 17 -30 20 -30 6z"/>
<path d="M797 2703 c-4 -3 -7 -11 -7 -17 0 -6 5 -5 12 2 6 6 9 14 7 17 -3 3
-9 2 -12 -2z"/>
</g>
</svg>
